# xmcd
#
# Track frame offsets: 
#        150
#        19883
#        38698
#        64867
#        82163
#        109064
#        122431
#        138480
#        159531
#        169459
#        192744
#        203954
#        217959
#        248805
#
# Disc length: 4089 seconds
#
# Revision: 1
# Processed by: cddbd v1.5.2PL0 Copyright (c) Steve Scherf et al.
# Submitted via: ExactAudioCopy v0.99pb3
#
DISCID=ce0ff70e
DTITLE=Treves Blues Band - Live 2008 [CD 1)
DYEAR=2008
DGENRE=Blues
TTITLE0=No
TTITLE1=Flip, Flop And Fly
TTITLE2=Baby Lee
TTITLE3=Baby What You Want Me To Do
TTITLE4=Don't Think Twicw It's All Right
TTITLE5=I Can't Be Satisfied
TTITLE6=Bayou Blood
TTITLE7=I'm Gonna Find My Baby
TTITLE8=Traintime
TTITLE9=Nashvegas
TTITLE10=Don't Call Me On The Phone
TTITLE11=Am I Wrong
TTITLE12=Walking' Blues
TTITLE13=Stone Fox Chase
EXTD=
EXTT0=
EXTT1=
EXTT2=
EXTT3=
EXTT4=
EXTT5=
EXTT6=
EXTT7=
EXTT8=
EXTT9=
EXTT10=
EXTT11=
EXTT12=
EXTT13=
PLAYORDER=
